<?xml version="1.0" encoding="UTF-8" standalone="no"?>
<!-- Created with Inkscape (http://www.inkscape.org/) -->

<svg
   version="1.1"
   id="svg1"
   width="2961.3333"
   height="1644"
   viewBox="0 0 2961.3333 1644"
   sodipodi:docname="bandera nueva.pdf"
   xmlns:inkscape="http://www.inkscape.org/namespaces/inkscape"
   xmlns:sodipodi="http://sodipodi.sourceforge.net/DTD/sodipodi-0.dtd"
   xmlns="http://www.w3.org/2000/svg"
   xmlns:svg="http://www.w3.org/2000/svg">
  <defs
     id="defs1" />
  <sodipodi:namedview
     id="namedview1"
     pagecolor="#505050"
     bordercolor="#eeeeee"
     borderopacity="1"
     inkscape:showpageshadow="0"
     inkscape:pageopacity="0"
     inkscape:pagecheckerboard="0"
     inkscape:deskcolor="#505050">
    <inkscape:page
       x="0"
       y="0"
       width="2961.3333"
       height="1644"
       id="page2"
       margin="0"
       bleed="0" />
  </sodipodi:namedview>
  <g
     id="g1"
     inkscape:groupmode="layer"
     inkscape:label="1">
    <path
       id="path1"
       d="M 0,0 H 2221 V 1233 H 0 Z"
       style="fill:#ed1c24;fill-opacity:1;fill-rule:nonzero;stroke:none"
       transform="scale(1.3333333)" />
    <path
       id="path2"
       d="M 0,0 H 2221 V 1233.555 H 0 Z"
       style="fill:none;stroke:#ee1c25;stroke-width:4e-07;stroke-linecap:butt;stroke-linejoin:miter;stroke-miterlimit:4;stroke-dasharray:none;stroke-opacity:1"
       transform="scale(1.3333333,1.3327333)" />
    <path
       id="path3"
       d="M 448.383,616.774 1110.5,159.134 1772.617,616.774 1110.5,1074.421 Z"
       style="fill:#e3e4e5;fill-opacity:1;fill-rule:nonzero;stroke:#ed1c24;stroke-width:4.11308;stroke-linecap:butt;stroke-linejoin:miter;stroke-miterlimit:4;stroke-dasharray:none;stroke-opacity:1"
       transform="scale(1.3333333,1.3327333)" />
    <path
       id="path4"
       d="m 883.832,315.664 -87.68,60.57 240.227,240.27 -240.223,240.262 87.676,60.57 226.668,-226.703 226.668,226.703 43.836,-30.285 43.844,-30.293 -240.227,-240.254 240.227,-240.266 -43.844,-30.289 -43.836,-30.285 -226.668,226.703 z"
       style="fill:#ed1c24;fill-opacity:1;fill-rule:nonzero;stroke:none"
       transform="scale(1.3333333)" />
    <path
       id="path5"
       d="M 448.383,616.496 1110.5,159.062 1772.617,616.496 1110.5,1073.938 Z"
       style="fill:#e3e4e5;fill-opacity:1;fill-rule:nonzero;stroke:none"
       transform="scale(1.3333333)" />
    <path
       id="path6"
       d="m 883.832,315.806 -87.68,60.598 240.227,240.378 -240.223,240.369 87.676,60.598 226.668,-226.805 226.668,226.805 43.836,-30.299 43.844,-30.306 -240.227,-240.362 240.227,-240.374 -43.844,-30.303 -43.836,-30.299 -226.668,226.805 z"
       style="fill:#ed1c24;fill-opacity:1;fill-rule:nonzero;stroke:#ed1c24;stroke-width:6.80621;stroke-linecap:butt;stroke-linejoin:miter;stroke-miterlimit:4;stroke-dasharray:none;stroke-opacity:1"
       transform="scale(1.3333333,1.3327333)" />
    <path
       id="path7"
       d="m 605.371,1098.562 51.945,-159.91 51.95,159.91 -135.934,-98.621 h 167.973"
       style="fill:#eac102;fill-opacity:1;fill-rule:nonzero;stroke:none"
       transform="scale(1.3333333)" />
    <path
       id="path8"
       d="m 1515.352,1098.562 51.945,-159.91 51.949,159.91 -135.934,-98.621 h 167.973"
       style="fill:#eac102;fill-opacity:1;fill-rule:nonzero;stroke:none"
       transform="scale(1.3333333)" />
    <path
       id="path9"
       d="m 1515.352,294.348 51.945,-159.91 51.949,159.91 -135.934,-98.621 h 167.973"
       style="fill:#eac102;fill-opacity:1;fill-rule:nonzero;stroke:none"
       transform="scale(1.3333333)" />
    <path
       id="path10"
       d="m 605.371,294.348 51.945,-159.91 51.95,159.91 -135.934,-98.621 h 167.973"
       style="fill:#eac102;fill-opacity:1;fill-rule:nonzero;stroke:none"
       transform="scale(1.3333333)" />
  </g>
</svg>
