<?xml version="1.0" encoding="UTF-8" standalone="no"?>
<!-- Created with Inkscape (http://www.inkscape.org/) -->

<svg
   width="783.16663mm"
   height="434.97501mm"
   viewBox="0 0 783.16663 434.97501"
   version="1.1"
   id="svg1"
   xml:space="preserve"
   xmlns:inkscape="http://www.inkscape.org/namespaces/inkscape"
   xmlns:sodipodi="http://sodipodi.sourceforge.net/DTD/sodipodi-0.dtd"
   xmlns="http://www.w3.org/2000/svg"
   xmlns:svg="http://www.w3.org/2000/svg"><sodipodi:namedview
     id="namedview1"
     pagecolor="#505050"
     bordercolor="#eeeeee"
     borderopacity="1"
     inkscape:showpageshadow="0"
     inkscape:pageopacity="0"
     inkscape:pagecheckerboard="0"
     inkscape:deskcolor="#505050"
     inkscape:document-units="mm"><inkscape:page
       x="0"
       y="0"
       width="783.16663"
       height="434.97501"
       id="page3"
       margin="0"
       bleed="0" /></sodipodi:namedview><defs
     id="defs1" /><g
     id="g8"
     inkscape:groupmode="layer"
     inkscape:label="2"
     transform="matrix(0.26458333,0,0,0.26458334,-788.45827,0)"><path
       id="path9"
       d="M 0,0 H 2220 V 1233 H 0 Z"
       style="fill:#ed1c24;fill-opacity:1;fill-rule:nonzero;stroke:none"
       transform="matrix(1.3333333,0,0,1.3333333,2980,0)" /><path
       id="path10"
       d="M 0,0 H 2221.351 V 1233 H 0 Z"
       style="fill:none;stroke:#ee1c25;stroke-width:4e-07;stroke-linecap:butt;stroke-linejoin:miter;stroke-miterlimit:4;stroke-dasharray:none;stroke-opacity:1"
       transform="matrix(1.3325227,0,0,1.3333333,2980,0)" /><path
       id="path11"
       d="m -166.946,725 551.944,0.002 0.002,551.944 -551.947,10e-4 z"
       style="fill:#e3e4e5;fill-opacity:1;fill-rule:nonzero;stroke:#ed1c24;stroke-width:2.91622;stroke-linecap:butt;stroke-linejoin:miter;stroke-miterlimit:4;stroke-dasharray:none;stroke-opacity:1"
       transform="matrix(1.3333333,-0.92157467,1.3333333,0.92157467,2980,0)" /><path
       id="path12"
       d="m 921.047,365.605 -36.543,25.258 -36.547,25.258 200.254,200.379 -200.25,200.375 73.086,50.516 188.953,-189.067 188.953,189.067 36.543,-25.258 36.547,-25.262 L 1171.789,616.5 1372.043,416.125 1335.496,390.863 1298.953,365.605 1110,554.672 Z"
       style="fill:#ed1c24;fill-opacity:1;fill-rule:nonzero;stroke:none"
       transform="matrix(1.3333333,0,0,1.3333333,2980,0)" /><path
       id="path13"
       d="m 1404.066,365.605 51.926,-159.91 51.922,159.91 -135.871,-98.621 h 167.898"
       style="fill:#eac102;fill-opacity:1;fill-rule:nonzero;stroke:none"
       transform="matrix(1.3333333,0,0,1.3333333,2980,0)" /><path
       id="path14"
       d="m 712.086,1027.305 51.922,-159.91 51.926,159.91 -135.872,-98.625 h 167.895"
       style="fill:#eac102;fill-opacity:1;fill-rule:nonzero;stroke:none"
       transform="matrix(1.3333333,0,0,1.3333333,2980,0)" /><path
       id="path15"
       d="m 1404.07,1027.305 51.922,-159.91 51.922,159.91 -135.871,-98.625 h 167.898"
       style="fill:#eac102;fill-opacity:1;fill-rule:nonzero;stroke:none"
       transform="matrix(1.3333333,0,0,1.3333333,2980,0)" /><path
       id="path16"
       d="m 712.086,365.605 51.922,-159.91 51.926,159.91 -135.872,-98.621 h 167.895"
       style="fill:#eac102;fill-opacity:1;fill-rule:nonzero;stroke:none"
       transform="matrix(1.3333333,0,0,1.3333333,2980,0)" /></g></svg>
